<svg data-v-2cb57da0="" version="1.0" xmlns="http://www.w3.org/2000/svg" xmlns:xlink="http://www.w3.org/1999/xlink" width="100%" height="100%" viewBox="0 0 340.000000 250.000000" preserveAspectRatio="xMidYMid meet" color-interpolation-filters="sRGB" style="margin: auto;"><rect data-v-2cb57da0="" x="0" y="0" width="100%" height="100%" fill="#fff" fill-opacity="1" class=""></rect> <rect data-v-2cb57da0="" x="0" y="0" width="100%" height="100%" fill="url(#watermark)" fill-opacity="1" class="watermarklayer"></rect> <g data-v-2cb57da0="" fill="#333" class="icon-text-wrapper icon-svg-group iconsvg" transform="translate(72.77000427246094,98.34680366516113)"><g class="iconsvg-imagesvg" transform="translate(0,1.4412059783935547)"><g><rect fill="#333" fill-opacity="0" stroke-width="2" x="0" y="0" width="60" height="50.42398164567068" class="image-rect"></rect> <svg x="0" y="0" width="60" height="50.42398164567068" filtersec="colorsb5536492225" class="image-svg-svg primary" style="overflow: visible;"><svg xmlns="http://www.w3.org/2000/svg" viewBox="-0.0028496086597442627 0 80.00285339355469 67.2342529296875"><title>资源 181</title><path d="M48.31 36.57c-3.1-3.22-6.25-6.47-9.35-9.76-.52-.55-.74-.47-1.22 0Q19.22 45.33.68 63.81c-.17.17-.32.37-.47.55-.31-.2-.19-.44-.19-.63C0 61 0 58.31 0 55.6a1.55 1.55 0 0 1 .52-1.2C2.7 52.25 4.84 50.07 7 47.92a1.71 1.71 0 0 0 .56-1.34V9.5c0-.8.22-.95 1-.95h56.67c.45 0 1.07-.21.89.59l3-3.06L66 2.81 80 0c-1 4.72-1.87 9.33-2.77 13.86l-3-2.92z" fill="#232323"></path><path d="M65.9 28.59a1.37 1.37 0 0 1 .17.93v36.67c0 .7-.14 1-.88.89a22.43 22.43 0 0 0-2.84 0c-.63 0-.83-.14-.82-.8V52.87v-7.48c0-.59-.11-.8-.75-.79h-5c-.59 0-.7.18-.7.73v20.81c0 .73-.16 1-.92.92s-1.84.34-2.33-.18-.13-1.5-.13-2.28V54.28c0-.61-.15-.78-.76-.77q-2.4.07-4.8 0c-.66 0-.87.13-.86.83v11.87c0 .66-.13.94-.83.85s-1.9.34-2.42-.18-.13-1.54-.13-2.35V47.38c0-.66-.13-.89-.83-.86q-2.4.07-4.8 0c-.67 0-.78.21-.78.82v18.78c0 .81-.23 1-1 1a8.05 8.05 0 0 0-1.7 0c-.6.06-.72-.18-.71-.73v-9c0-.6-.16-.78-.77-.77h-5c-.59 0-.71.18-.71.74v8.94c0 .64-.1.94-.82.85s-1.93.35-2.4-.19-.13-1.55-.14-2.36c0-1.19.12-1-1-1h-4.71c-.55 0-.7.16-.67.69v2.44c0 .35-.1.47-.46.47H8c-.61 0-.51-.33-.31-.68A2.45 2.45 0 0 1 8.1 66q14.79-14.78 29.56-29.56c.52-.52.75-.48 1.23 0 3 3.11 5.94 6.18 8.88 9.29.45.48.68.44 1.12 0q8.22-8.26 16.48-16.51a7.76 7.76 0 0 0 .53-.63z" fill="#35b533"></path></svg></svg> <!----></g></g> <g transform="translate(67,0)"><g data-gra="path-name" fill-rule="" class="tp-name iconsvg-namesvg" transform="translate(0,0)"><g transform="scale(1)"><g><path d="M4.87-8.85Q6.15-8.85 7.2-8.27 8.24-7.7 8.83-6.69 9.43-5.67 9.43-4.42L9.43-4.42Q9.43-3.17 8.83-2.16 8.23-1.15 7.18-0.57 6.13 0 4.83 0L4.83 0 1.26 0 1.26-8.85 4.87-8.85ZM4.89-1.1Q5.81-1.1 6.57-1.53 7.32-1.96 7.75-2.72 8.19-3.48 8.19-4.41L8.19-4.41Q8.19-5.36 7.75-6.12 7.3-6.87 6.54-7.31 5.78-7.75 4.84-7.75L4.84-7.75 2.48-7.75 2.48-1.1 4.89-1.1ZM11.16 0L11.16-8.85 12.37-8.85 12.37 0 11.16 0ZM22.79 0L21.47 0 20.54-2.15 15.87-2.15 14.95 0 13.67 0 17.6-8.85 18.87-8.85 22.79 0ZM18.2-7.54L16.35-3.25 20.07-3.25 18.2-7.54ZM24.07 0L24.07-8.85 25.51-8.85 28.75-2.63 31.96-8.85 33.41-8.85 33.41 0 32.28 0 32.26-7.06 29.12-0.94 28.37-0.94 25.2-7.06 25.2 0 24.07 0ZM39.81-8.92Q41.08-8.92 42.15-8.33 43.22-7.73 43.84-6.7 44.46-5.67 44.46-4.44L44.46-4.44Q44.46-3.2 43.84-2.15 43.22-1.11 42.15-0.51 41.08 0.09 39.81 0.09L39.81 0.09Q38.53 0.09 37.46-0.51 36.4-1.11 35.78-2.15 35.16-3.2 35.16-4.44L35.16-4.44Q35.16-5.67 35.78-6.7 36.4-7.73 37.46-8.33 38.52-8.92 39.81-8.92L39.81-8.92ZM39.82-7.84Q38.9-7.84 38.11-7.38 37.32-6.93 36.85-6.15 36.38-5.37 36.38-4.44L36.38-4.44Q36.38-3.5 36.85-2.72 37.32-1.93 38.11-1.47 38.9-1.01 39.82-1.01L39.82-1.01Q40.74-1.01 41.52-1.47 42.3-1.93 42.76-2.72 43.22-3.5 43.22-4.44L43.22-4.44Q43.22-5.37 42.76-6.15 42.3-6.93 41.52-7.38 40.74-7.84 39.82-7.84L39.82-7.84ZM52.5-1.98L52.5-8.85 53.7-8.85 53.7 0 52.47 0 47.42-6.85 47.42 0 46.2 0 46.2-8.85 47.43-8.85 52.5-1.98ZM59.84-8.85Q61.13-8.85 62.17-8.27 63.21-7.7 63.81-6.69 64.4-5.67 64.4-4.42L64.4-4.42Q64.4-3.17 63.8-2.16 63.2-1.15 62.15-0.57 61.1 0 59.8 0L59.8 0 56.24 0 56.24-8.85 59.84-8.85ZM59.86-1.1Q60.79-1.1 61.54-1.53 62.29-1.96 62.73-2.72 63.16-3.48 63.16-4.41L63.16-4.41Q63.16-5.36 62.72-6.12 62.28-6.87 61.51-7.31 60.75-7.75 59.81-7.75L59.81-7.75 57.45-7.75 57.45-1.1 59.86-1.1ZM69.44 0L69.44-8.85 70.66-8.85 70.66-4.9 75.71-4.9 75.71-8.85 76.94-8.85 76.94 0 75.71 0 75.71-3.8 70.66-3.8 70.66 0 69.44 0ZM83.33-8.92Q84.61-8.92 85.67-8.33 86.74-7.73 87.36-6.7 87.98-5.67 87.98-4.44L87.98-4.44Q87.98-3.2 87.36-2.15 86.74-1.11 85.67-0.51 84.61 0.09 83.33 0.09L83.33 0.09Q82.05 0.09 80.99-0.51 79.92-1.11 79.3-2.15 78.68-3.2 78.68-4.44L78.68-4.44Q78.68-5.67 79.3-6.7 79.92-7.73 80.98-8.33 82.04-8.92 83.33-8.92L83.33-8.92ZM83.34-7.84Q82.42-7.84 81.63-7.38 80.84-6.93 80.37-6.15 79.91-5.37 79.91-4.44L79.91-4.44Q79.91-3.5 80.37-2.72 80.84-1.93 81.63-1.47 82.42-1.01 83.34-1.01L83.34-1.01Q84.27-1.01 85.04-1.47 85.82-1.93 86.28-2.72 86.74-3.5 86.74-4.44L86.74-4.44Q86.74-5.37 86.28-6.15 85.82-6.93 85.04-7.38 84.27-7.84 83.34-7.84L83.34-7.84ZM96.83 0L95.44 0 93.68-2.78Q93.38-2.75 93.19-2.75L93.19-2.75 90.94-2.75 90.94 0 89.72 0 89.72-8.85 93.19-8.85Q94.87-8.85 95.78-8.07 96.7-7.29 96.7-5.86L96.7-5.86Q96.7-4.79 96.2-4.06 95.7-3.32 94.77-3L94.77-3 96.83 0ZM90.94-3.85L93.19-3.85Q94.32-3.85 94.93-4.35 95.54-4.85 95.54-5.83L95.54-5.83Q95.54-6.77 94.93-7.26 94.32-7.75 93.19-7.75L93.19-7.75 90.94-7.75 90.94-3.85ZM98.86 0L98.86-8.85 100.07-8.85 100.07 0 98.86 0ZM102.01-7.75L102.02-8.85 109.14-8.85 109.14-7.95 103.47-1.1 109.2-1.1 109.19 0 101.86 0 101.86-0.9 107.52-7.75 102.01-7.75ZM114.84-8.92Q116.11-8.92 117.18-8.33 118.25-7.73 118.87-6.7 119.49-5.67 119.49-4.44L119.49-4.44Q119.49-3.2 118.87-2.15 118.25-1.11 117.18-0.51 116.11 0.09 114.84 0.09L114.84 0.09Q113.56 0.09 112.49-0.51 111.42-1.11 110.8-2.15 110.18-3.2 110.18-4.44L110.18-4.44Q110.18-5.67 110.8-6.7 111.42-7.73 112.48-8.33 113.55-8.92 114.84-8.92L114.84-8.92ZM114.85-7.84Q113.93-7.84 113.14-7.38 112.35-6.93 111.88-6.15 111.41-5.37 111.41-4.44L111.41-4.44Q111.41-3.5 111.88-2.72 112.35-1.93 113.14-1.47 113.93-1.01 114.85-1.01L114.85-1.01Q115.77-1.01 116.55-1.47 117.32-1.93 117.79-2.72 118.25-3.5 118.25-4.44L118.25-4.44Q118.25-5.37 117.79-6.15 117.32-6.93 116.55-7.38 115.77-7.84 114.85-7.84L114.85-7.84ZM127.52-1.98L127.52-8.85 128.72-8.85 128.72 0 127.5 0 122.44-6.85 122.44 0 121.23 0 121.23-8.85 122.46-8.85 127.52-1.98Z" transform="translate(-1.2599999904632568, 8.920000076293945)"></path></g> <!----> <!----> <!----> <!----> <!----> <!----> <g data-gra="path-name-1" fill="#333" transform="translate(0,12.010000228881836)"><g transform="scale(1.02213)"><path d="M17.65-30.96Q22.38-30.96 25.1-28.91 27.82-26.85 27.82-23.22L27.82-23.22Q27.82-20.57 26.32-18.73 24.81-16.9 22.2-16.28L22.2-16.28Q25.43-15.79 27.27-13.69 29.11-11.59 29.11-8.45L29.11-8.45Q29.11-4.47 26.12-2.23 23.13 0 17.87 0L17.87 0 4.42 0 4.42-30.96 17.65-30.96ZM17.43-17.83Q20.3-17.83 21.87-19.04 23.44-20.26 23.44-22.51L23.44-22.51Q23.44-24.73 21.87-25.92 20.3-27.11 17.43-27.07L17.43-27.07 8.67-27.07 8.67-17.83 17.43-17.83ZM17.43-3.89Q20.88-3.85 22.82-5.2 24.77-6.55 24.77-8.98L24.77-8.98Q24.77-11.32 22.82-12.65 20.88-13.98 17.43-13.98L17.43-13.98 8.67-13.98 8.67-3.89 17.43-3.89ZM63.52 0L58.92 0 55.64-7.52 39.32-7.52 36.09 0 31.63 0 45.38-30.96 49.81-30.96 63.52 0ZM47.46-26.41L41-11.37 54.01-11.37 47.46-26.41ZM90.06-6.94L90.06-30.96 94.26-30.96 94.26 0 89.97 0 72.28-23.97 72.28 0 68.03 0 68.03-30.96 72.32-30.96 90.06-6.94ZM116.07-17.6L129.12 0 123.98 0 113.1-14.29 107.4-8.09 107.4 0 103.15 0 103.15-30.96 107.4-30.96 107.4-13.58 123.23-30.96 128.32-30.96 116.07-17.6Z" transform="translate(-4.420000076293945, 30.959999084472656)"></path></g></g></g></g> <g data-gra="path-slogan" fill-rule="" class="tp-slogan iconsvg-slogansvg" fill="#333" transform="translate(1.0300025939941406,49.65514373779297)"><rect width="0"></rect> <rect x="128.39999389648438" width="0"></rect> <g transform="translate(0,0)"><g transform="scale(1)"><path d="M0.12-3.53L0.87 0L1.40 0L1.92-2.12C1.95-2.26 1.98-2.39 2.01-2.52C2.04-2.65 2.07-2.79 2.10-2.92L2.12-2.92C2.15-2.79 2.18-2.65 2.21-2.52C2.23-2.39 2.26-2.26 2.30-2.12L2.83 0L3.37 0L4.10-3.53L3.67-3.53L3.30-1.61C3.26-1.42 3.23-1.23 3.19-1.04C3.16-0.85 3.13-0.66 3.10-0.47L3.08-0.47C3.03-0.66 2.99-0.85 2.95-1.04C2.90-1.23 2.86-1.42 2.82-1.61L2.33-3.53L1.92-3.53L1.43-1.61C1.39-1.42 1.35-1.23 1.31-1.04C1.26-0.85 1.22-0.66 1.18-0.47L1.16-0.47C1.13-0.66 1.09-0.85 1.06-1.04C1.02-1.22 0.99-1.41 0.96-1.61L0.59-3.53ZM4.62-3.53L4.62 0L6.71 0L6.71-0.38L5.07-0.38L5.07-1.66L6.41-1.66L6.41-2.04L5.07-2.04L5.07-3.15L6.65-3.15L6.65-3.53ZM8.38-0.77L8.11-0.46C8.26-0.30 8.45-0.17 8.66-0.08C8.87 0.02 9.10 0.06 9.35 0.06C9.53 0.06 9.70 0.04 9.85-0.01C9.99-0.07 10.12-0.14 10.22-0.23C10.33-0.32 10.41-0.43 10.46-0.55C10.52-0.67 10.55-0.80 10.55-0.94C10.55-1.07 10.53-1.18 10.49-1.28C10.45-1.38 10.40-1.47 10.34-1.54C10.27-1.61 10.19-1.68 10.10-1.73C10.01-1.79 9.92-1.84 9.82-1.88L9.32-2.10C9.25-2.13 9.18-2.16 9.11-2.19C9.04-2.22 8.98-2.26 8.92-2.31C8.86-2.35 8.82-2.41 8.78-2.46C8.75-2.52 8.73-2.60 8.73-2.68C8.73-2.84 8.79-2.97 8.91-3.06C9.03-3.15 9.19-3.20 9.39-3.20C9.55-3.20 9.70-3.17 9.83-3.11C9.96-3.05 10.08-2.97 10.19-2.87L10.43-3.16C10.31-3.28 10.15-3.39 9.98-3.47C9.80-3.55 9.60-3.59 9.39-3.59C9.23-3.59 9.08-3.57 8.95-3.52C8.81-3.47 8.69-3.41 8.60-3.33C8.50-3.24 8.42-3.14 8.37-3.03C8.31-2.91 8.28-2.79 8.28-2.66C8.28-2.53 8.30-2.41 8.35-2.31C8.39-2.22 8.44-2.13 8.51-2.06C8.58-1.99 8.66-1.93 8.74-1.88C8.83-1.83 8.91-1.78 9.00-1.75L9.50-1.53C9.58-1.49 9.66-1.45 9.73-1.41C9.81-1.38 9.87-1.34 9.92-1.29C9.97-1.25 10.01-1.19 10.04-1.13C10.07-1.07 10.09-0.99 10.09-0.90C10.09-0.73 10.02-0.59 9.89-0.49C9.77-0.38 9.58-0.33 9.35-0.33C9.17-0.33 8.99-0.37 8.82-0.45C8.65-0.53 8.50-0.64 8.38-0.77ZM11.15-3.53L11.15 0L13.24 0L13.24-0.38L11.60-0.38L11.60-1.66L12.94-1.66L12.94-2.04L11.60-2.04L11.60-3.15L13.18-3.15L13.18-3.53ZM13.69-1.76C13.69-1.48 13.73-1.22 13.81-0.99C13.89-0.76 13.99-0.57 14.13-0.42C14.27-0.26 14.43-0.14 14.62-0.06C14.81 0.02 15.01 0.06 15.24 0.06C15.46 0.06 15.66 0.02 15.84-0.07C16.01-0.16 16.17-0.28 16.31-0.45L16.06-0.72C15.94-0.59 15.82-0.50 15.70-0.43C15.57-0.36 15.42-0.33 15.25-0.33C15.08-0.33 14.93-0.36 14.79-0.43C14.66-0.50 14.54-0.59 14.45-0.72C14.36-0.85 14.29-1.00 14.23-1.17C14.18-1.35 14.16-1.55 14.16-1.77C14.16-1.99 14.18-2.19 14.24-2.37C14.29-2.54 14.37-2.69 14.46-2.81C14.56-2.94 14.68-3.03 14.81-3.10C14.95-3.17 15.10-3.20 15.27-3.20C15.42-3.20 15.55-3.17 15.66-3.11C15.78-3.05 15.88-2.97 15.97-2.87L16.23-3.16C16.12-3.27 15.99-3.37 15.83-3.46C15.67-3.55 15.48-3.59 15.26-3.59C15.04-3.59 14.83-3.55 14.64-3.46C14.45-3.38 14.28-3.26 14.14-3.10C14.00-2.94 13.89-2.75 13.81-2.53C13.73-2.30 13.69-2.05 13.69-1.76ZM16.79-3.53L16.79-1.46C16.79-1.17 16.82-0.94 16.89-0.74C16.95-0.55 17.04-0.39 17.15-0.27C17.27-0.15 17.40-0.07 17.56-0.01C17.71 0.04 17.88 0.06 18.06 0.06C18.24 0.06 18.40 0.04 18.56-0.01C18.71-0.07 18.85-0.15 18.96-0.27C19.07-0.39 19.16-0.55 19.22-0.74C19.29-0.94 19.32-1.17 19.32-1.46L19.32-3.53L18.89-3.53L18.89-1.45C18.89-1.23 18.87-1.06 18.83-0.91C18.78-0.77 18.72-0.66 18.65-0.57C18.57-0.48 18.49-0.42 18.39-0.38C18.29-0.35 18.18-0.33 18.06-0.33C17.94-0.33 17.84-0.35 17.74-0.38C17.64-0.42 17.55-0.48 17.47-0.57C17.40-0.66 17.34-0.77 17.30-0.91C17.26-1.06 17.24-1.23 17.24-1.45L17.24-3.53ZM20.63-1.85L20.63-3.17L21.22-3.17C21.50-3.17 21.71-3.12 21.86-3.03C22.01-2.93 22.08-2.77 22.08-2.54C22.08-2.31 22.01-2.14 21.86-2.02C21.71-1.91 21.50-1.85 21.22-1.85ZM22.12 0L22.63 0L21.73-1.54C21.97-1.60 22.17-1.71 22.31-1.88C22.45-2.04 22.52-2.26 22.52-2.54C22.52-2.72 22.49-2.87 22.43-3.00C22.37-3.13 22.29-3.23 22.18-3.31C22.07-3.39 21.94-3.44 21.79-3.48C21.63-3.51 21.47-3.53 21.29-3.53L20.19-3.53L20.19 0L20.63 0L20.63-1.49L21.27-1.49ZM23.22-3.53L23.22 0L25.31 0L25.31-0.38L23.67-0.38L23.67-1.66L25.01-1.66L25.01-2.04L23.67-2.04L23.67-3.15L25.25-3.15L25.25-3.53ZM28.47-1.44L27.41-1.44L27.58-1.97C27.64-2.17 27.70-2.37 27.76-2.56C27.82-2.76 27.87-2.96 27.92-3.16L27.95-3.16C28.00-2.96 28.06-2.76 28.12-2.56C28.18-2.37 28.24-2.17 28.30-1.97ZM28.58-1.08L28.91 0L29.39 0L28.20-3.53L27.69-3.53L26.50 0L26.96 0L27.30-1.08ZM29.81-3.53L29.81 0L30.23 0L30.23-1.84C30.23-2.03 30.22-2.22 30.21-2.40C30.20-2.59 30.19-2.77 30.17-2.95L30.19-2.95L30.57-2.22L31.85 0L32.32 0L32.32-3.53L31.89-3.53L31.89-1.70C31.89-1.52 31.90-1.33 31.91-1.14C31.92-0.95 31.93-0.76 31.95-0.58L31.92-0.58L31.54-1.31L30.27-3.53ZM33.20-3.53L33.20 0L34.10 0C34.37 0 34.60-0.04 34.80-0.12C35.01-0.20 35.18-0.32 35.32-0.47C35.46-0.62 35.57-0.81 35.64-1.03C35.71-1.25 35.75-1.50 35.75-1.78C35.75-2.34 35.60-2.77 35.32-3.08C35.04-3.38 34.62-3.53 34.08-3.53ZM34.05-0.37L33.64-0.37L33.64-3.16L34.05-3.16C34.46-3.16 34.77-3.04 34.97-2.81C35.18-2.57 35.28-2.23 35.28-1.78C35.28-1.33 35.18-0.98 34.97-0.74C34.77-0.49 34.46-0.37 34.05-0.37ZM37.42-3.53L37.42 0L38.32 0C38.58 0 38.82-0.04 39.02-0.12C39.23-0.20 39.40-0.32 39.54-0.47C39.68-0.62 39.78-0.81 39.86-1.03C39.93-1.25 39.96-1.50 39.96-1.78C39.96-2.34 39.82-2.77 39.54-3.08C39.26-3.38 38.84-3.53 38.30-3.53ZM38.26-0.37L37.86-0.37L37.86-3.16L38.26-3.16C38.68-3.16 38.99-3.04 39.19-2.81C39.40-2.57 39.50-2.23 39.50-1.78C39.50-1.33 39.40-0.98 39.19-0.74C38.99-0.49 38.68-0.37 38.26-0.37ZM41.94 0.06C42.16 0.06 42.36 0.02 42.55-0.06C42.73-0.15 42.89-0.27 43.02-0.43C43.16-0.59 43.26-0.79 43.34-1.01C43.41-1.24 43.45-1.50 43.45-1.78C43.45-2.06 43.41-2.31 43.34-2.53C43.26-2.76 43.16-2.95 43.02-3.10C42.89-3.26 42.73-3.38 42.55-3.46C42.36-3.55 42.16-3.59 41.94-3.59C41.71-3.59 41.51-3.55 41.33-3.47C41.14-3.39 40.98-3.27 40.85-3.11C40.72-2.95 40.61-2.76 40.54-2.54C40.47-2.32 40.43-2.06 40.43-1.78C40.43-1.50 40.47-1.24 40.54-1.01C40.61-0.79 40.72-0.59 40.85-0.43C40.98-0.27 41.14-0.15 41.33-0.06C41.51 0.02 41.71 0.06 41.94 0.06ZM41.94-0.33C41.78-0.33 41.64-0.36 41.51-0.43C41.38-0.50 41.27-0.60 41.18-0.72C41.09-0.85 41.02-1.00 40.97-1.18C40.92-1.36 40.89-1.56 40.89-1.78C40.89-2.00 40.92-2.20 40.97-2.37C41.02-2.55 41.09-2.70 41.18-2.82C41.27-2.94 41.38-3.03 41.51-3.10C41.64-3.17 41.78-3.20 41.94-3.20C42.09-3.20 42.24-3.17 42.36-3.10C42.49-3.03 42.60-2.94 42.69-2.82C42.78-2.70 42.85-2.55 42.90-2.37C42.95-2.20 42.98-2.00 42.98-1.78C42.98-1.56 42.95-1.36 42.90-1.18C42.85-1.00 42.78-0.85 42.69-0.72C42.60-0.60 42.49-0.50 42.36-0.43C42.24-0.36 42.09-0.33 41.94-0.33ZM44.10-3.53L44.10-1.46C44.10-1.17 44.13-0.94 44.20-0.74C44.26-0.55 44.35-0.39 44.46-0.27C44.58-0.15 44.71-0.07 44.87-0.01C45.02 0.04 45.19 0.06 45.37 0.06C45.55 0.06 45.72 0.04 45.87-0.01C46.02-0.07 46.16-0.15 46.27-0.27C46.38-0.39 46.47-0.55 46.54-0.74C46.60-0.94 46.63-1.17 46.63-1.46L46.63-3.53L46.20-3.53L46.20-1.45C46.20-1.23 46.18-1.06 46.14-0.91C46.10-0.77 46.04-0.66 45.96-0.57C45.89-0.48 45.80-0.42 45.70-0.38C45.60-0.35 45.49-0.33 45.37-0.33C45.26-0.33 45.15-0.35 45.05-0.38C44.95-0.42 44.86-0.48 44.79-0.57C44.71-0.66 44.66-0.77 44.61-0.91C44.57-1.06 44.55-1.23 44.55-1.45L44.55-3.53ZM47.50-3.53L47.50 0L48.62 0C48.82 0 49.00-0.02 49.16-0.06C49.33-0.11 49.47-0.17 49.59-0.26C49.71-0.34 49.80-0.45 49.86-0.58C49.93-0.71 49.96-0.86 49.96-1.03C49.96-1.28 49.89-1.47 49.75-1.61C49.60-1.75 49.40-1.84 49.14-1.88L49.14-1.90C49.35-1.95 49.51-2.05 49.61-2.19C49.71-2.33 49.76-2.49 49.76-2.67C49.76-2.82 49.73-2.95 49.67-3.06C49.61-3.17 49.53-3.26 49.42-3.33C49.31-3.40 49.19-3.45 49.04-3.48C48.89-3.51 48.73-3.53 48.55-3.53ZM48.47-2.02L47.94-2.02L47.94-3.17L48.49-3.17C48.76-3.17 48.97-3.13 49.11-3.05C49.25-2.96 49.32-2.82 49.32-2.63C49.32-2.43 49.25-2.28 49.12-2.18C48.99-2.07 48.77-2.02 48.47-2.02ZM48.56-0.35L47.94-0.35L47.94-1.69L48.56-1.69C48.87-1.69 49.11-1.64 49.27-1.53C49.44-1.43 49.52-1.27 49.52-1.05C49.52-0.81 49.44-0.64 49.27-0.52C49.10-0.41 48.86-0.35 48.56-0.35ZM50.57-3.53L50.57 0L52.56 0L52.56-0.38L51.02-0.38L51.02-3.53ZM53.10-3.53L53.10 0L55.18 0L55.18-0.38L53.54-0.38L53.54-1.66L54.88-1.66L54.88-2.04L53.54-2.04L53.54-3.15L55.13-3.15L55.13-3.53ZM57.41-1.37L57.41 0L57.86 0L57.86-1.37L58.92-3.53L58.46-3.53L58.00-2.53C57.95-2.40 57.89-2.28 57.83-2.15C57.77-2.03 57.71-1.90 57.65-1.76L57.63-1.76C57.57-1.90 57.51-2.03 57.46-2.15C57.40-2.28 57.35-2.40 57.29-2.53L56.83-3.53L56.35-3.53ZM60.54 0.06C60.76 0.06 60.97 0.02 61.15-0.06C61.34-0.15 61.50-0.27 61.63-0.43C61.76-0.59 61.87-0.79 61.94-1.01C62.02-1.24 62.05-1.50 62.05-1.78C62.05-2.06 62.02-2.31 61.94-2.53C61.87-2.76 61.76-2.95 61.63-3.10C61.50-3.26 61.34-3.38 61.15-3.46C60.97-3.55 60.76-3.59 60.54-3.59C60.32-3.59 60.12-3.55 59.93-3.47C59.75-3.39 59.59-3.27 59.46-3.11C59.32-2.95 59.22-2.76 59.15-2.54C59.07-2.32 59.04-2.06 59.04-1.78C59.04-1.50 59.07-1.24 59.15-1.01C59.22-0.79 59.32-0.59 59.46-0.43C59.59-0.27 59.75-0.15 59.93-0.06C60.12 0.02 60.32 0.06 60.54 0.06ZM60.54-0.33C60.38-0.33 60.24-0.36 60.11-0.43C59.99-0.50 59.88-0.60 59.79-0.72C59.69-0.85 59.62-1.00 59.57-1.18C59.52-1.36 59.50-1.56 59.50-1.78C59.50-2.00 59.52-2.20 59.57-2.37C59.62-2.55 59.69-2.70 59.79-2.82C59.88-2.94 59.99-3.03 60.11-3.10C60.24-3.17 60.38-3.20 60.54-3.20C60.70-3.20 60.84-3.17 60.97-3.10C61.10-3.03 61.21-2.94 61.30-2.82C61.39-2.70 61.46-2.55 61.51-2.37C61.56-2.20 61.58-2.00 61.58-1.78C61.58-1.56 61.56-1.36 61.51-1.18C61.46-1.00 61.39-0.85 61.30-0.72C61.21-0.60 61.10-0.50 60.97-0.43C60.84-0.36 60.70-0.33 60.54-0.33ZM62.71-3.53L62.71-1.46C62.71-1.17 62.74-0.94 62.80-0.74C62.87-0.55 62.96-0.39 63.07-0.27C63.18-0.15 63.32-0.07 63.47-0.01C63.63 0.04 63.80 0.06 63.98 0.06C64.15 0.06 64.32 0.04 64.48-0.01C64.63-0.07 64.76-0.15 64.88-0.27C64.99-0.39 65.08-0.55 65.14-0.74C65.21-0.94 65.24-1.17 65.24-1.46L65.24-3.53L64.81-3.53L64.81-1.45C64.81-1.23 64.79-1.06 64.74-0.91C64.70-0.77 64.64-0.66 64.57-0.57C64.49-0.48 64.40-0.42 64.30-0.38C64.20-0.35 64.09-0.33 63.98-0.33C63.86-0.33 63.75-0.35 63.65-0.38C63.55-0.42 63.47-0.48 63.39-0.57C63.32-0.66 63.26-0.77 63.22-0.91C63.17-1.06 63.15-1.23 63.15-1.45L63.15-3.53ZM66.55-1.85L66.55-3.17L67.14-3.17C67.42-3.17 67.63-3.12 67.78-3.03C67.92-2.93 68.00-2.77 68.00-2.54C68.00-2.31 67.92-2.14 67.78-2.02C67.63-1.91 67.42-1.85 67.14-1.85ZM68.04 0L68.54 0L67.65-1.54C67.89-1.60 68.08-1.71 68.23-1.88C68.37-2.04 68.44-2.26 68.44-2.54C68.44-2.72 68.41-2.87 68.35-3.00C68.29-3.13 68.20-3.23 68.10-3.31C67.99-3.39 67.86-3.44 67.70-3.48C67.55-3.51 67.39-3.53 67.21-3.53L66.10-3.53L66.10 0L66.55 0L66.55-1.49L67.19-1.49ZM70.14-3.53L70.14 0L70.55 0L70.55-1.94C70.55-2.10 70.55-2.27 70.53-2.46C70.52-2.65 70.50-2.83 70.49-2.98L70.52-2.98L70.80-2.20L71.48-0.35L71.73-0.35L72.41-2.20L72.69-2.98L72.71-2.98C72.70-2.83 72.69-2.65 72.67-2.46C72.66-2.27 72.66-2.10 72.66-1.94L72.66 0L73.08 0L73.08-3.53L72.55-3.53L71.88-1.63L71.63-0.91L71.61-0.91L71.35-1.63L70.67-3.53ZM75.26 0.06C75.48 0.06 75.69 0.02 75.87-0.06C76.06-0.15 76.22-0.27 76.35-0.43C76.48-0.59 76.59-0.79 76.66-1.01C76.74-1.24 76.77-1.50 76.77-1.78C76.77-2.06 76.74-2.31 76.66-2.53C76.59-2.76 76.48-2.95 76.35-3.10C76.22-3.26 76.06-3.38 75.87-3.46C75.69-3.55 75.48-3.59 75.26-3.59C75.04-3.59 74.84-3.55 74.65-3.47C74.47-3.39 74.31-3.27 74.18-3.11C74.04-2.95 73.94-2.76 73.87-2.54C73.79-2.32 73.76-2.06 73.76-1.78C73.76-1.50 73.79-1.24 73.87-1.01C73.94-0.79 74.04-0.59 74.18-0.43C74.31-0.27 74.47-0.15 74.65-0.06C74.84 0.02 75.04 0.06 75.26 0.06ZM75.26-0.33C75.10-0.33 74.96-0.36 74.83-0.43C74.71-0.50 74.60-0.60 74.51-0.72C74.42-0.85 74.34-1.00 74.29-1.18C74.24-1.36 74.22-1.56 74.22-1.78C74.22-2.00 74.24-2.20 74.29-2.37C74.34-2.55 74.42-2.70 74.51-2.82C74.60-2.94 74.71-3.03 74.83-3.10C74.96-3.17 75.10-3.20 75.26-3.20C75.42-3.20 75.56-3.17 75.69-3.10C75.82-3.03 75.93-2.94 76.02-2.82C76.11-2.70 76.18-2.55 76.23-2.37C76.28-2.20 76.30-2.00 76.30-1.78C76.30-1.56 76.28-1.36 76.23-1.18C76.18-1.00 76.11-0.85 76.02-0.72C75.93-0.60 75.82-0.50 75.69-0.43C75.56-0.36 75.42-0.33 75.26-0.33ZM77.44-3.53L77.44 0L77.87 0L77.87-1.84C77.87-2.03 77.86-2.22 77.85-2.40C77.84-2.59 77.82-2.77 77.81-2.95L77.83-2.95L78.21-2.22L79.49 0L79.95 0L79.95-3.53L79.53-3.53L79.53-1.70C79.53-1.52 79.54-1.33 79.55-1.14C79.56-0.95 79.57-0.76 79.58-0.58L79.56-0.58L79.18-1.31L77.91-3.53ZM80.84-3.53L80.84 0L82.92 0L82.92-0.38L81.28-0.38L81.28-1.66L82.62-1.66L82.62-2.04L81.28-2.04L81.28-3.15L82.87-3.15L82.87-3.53ZM84.15-1.37L84.15 0L84.60 0L84.60-1.37L85.66-3.53L85.19-3.53L84.74-2.53C84.69-2.40 84.63-2.28 84.57-2.15C84.51-2.03 84.45-1.90 84.39-1.76L84.37-1.76C84.31-1.90 84.25-2.03 84.19-2.15C84.14-2.28 84.08-2.40 84.03-2.53L83.57-3.53L83.09-3.53ZM87.78-3.15L87.78 0L88.24 0L88.24-3.15L89.30-3.15L89.30-3.53L86.72-3.53L86.72-3.15ZM89.85-3.53L89.85 0L90.29 0L90.29-1.66L91.93-1.66L91.93 0L92.38 0L92.38-3.53L91.93-3.53L91.93-2.05L90.29-2.05L90.29-3.53ZM93.27-3.53L93.27 0L95.35 0L95.35-0.38L93.71-0.38L93.71-1.66L95.05-1.66L95.05-2.04L93.71-2.04L93.71-3.15L95.30-3.15L95.30-3.53ZM97.01-3.53L97.01 0L98.13 0C98.33 0 98.51-0.02 98.68-0.06C98.84-0.11 98.98-0.17 99.10-0.26C99.22-0.34 99.31-0.45 99.38-0.58C99.44-0.71 99.47-0.86 99.47-1.03C99.47-1.28 99.40-1.47 99.26-1.61C99.11-1.75 98.91-1.84 98.66-1.88L98.66-1.90C98.86-1.95 99.02-2.05 99.12-2.19C99.22-2.33 99.27-2.49 99.27-2.67C99.27-2.82 99.24-2.95 99.18-3.06C99.12-3.17 99.04-3.26 98.93-3.33C98.83-3.40 98.70-3.45 98.55-3.48C98.40-3.51 98.24-3.53 98.06-3.53ZM97.98-2.02L97.46-2.02L97.46-3.17L98.00-3.17C98.28-3.17 98.48-3.13 98.62-3.05C98.76-2.96 98.83-2.82 98.83-2.63C98.83-2.43 98.76-2.28 98.63-2.18C98.50-2.07 98.28-2.02 97.98-2.02ZM98.07-0.35L97.46-0.35L97.46-1.69L98.07-1.69C98.38-1.69 98.62-1.64 98.78-1.53C98.95-1.43 99.03-1.27 99.03-1.05C99.03-0.81 98.95-0.64 98.78-0.52C98.61-0.41 98.37-0.35 98.07-0.35ZM100.08-3.53L100.08 0L102.17 0L102.17-0.38L100.53-0.38L100.53-1.66L101.87-1.66L101.87-2.04L100.53-2.04L100.53-3.15L102.12-3.15L102.12-3.53ZM102.84-0.77L102.57-0.46C102.73-0.30 102.91-0.17 103.12-0.08C103.33 0.02 103.56 0.06 103.81 0.06C104.00 0.06 104.16 0.04 104.31-0.01C104.46-0.07 104.58-0.14 104.69-0.23C104.79-0.32 104.87-0.43 104.93-0.55C104.98-0.67 105.01-0.80 105.01-0.94C105.01-1.07 104.99-1.18 104.95-1.28C104.91-1.38 104.86-1.47 104.80-1.54C104.73-1.61 104.66-1.68 104.57-1.73C104.48-1.79 104.38-1.84 104.28-1.88L103.78-2.10C103.71-2.13 103.64-2.16 103.57-2.19C103.50-2.22 103.44-2.26 103.38-2.31C103.33-2.35 103.28-2.41 103.25-2.46C103.21-2.52 103.20-2.60 103.20-2.68C103.20-2.84 103.26-2.97 103.38-3.06C103.50-3.15 103.66-3.20 103.85-3.20C104.02-3.20 104.17-3.17 104.30-3.11C104.43-3.05 104.55-2.97 104.65-2.87L104.90-3.16C104.77-3.28 104.62-3.39 104.44-3.47C104.26-3.55 104.06-3.59 103.85-3.59C103.69-3.59 103.54-3.57 103.41-3.52C103.27-3.47 103.16-3.41 103.06-3.33C102.96-3.24 102.88-3.14 102.83-3.03C102.77-2.91 102.75-2.79 102.75-2.66C102.75-2.53 102.77-2.41 102.81-2.31C102.85-2.22 102.91-2.13 102.98-2.06C103.04-1.99 103.12-1.93 103.21-1.88C103.29-1.83 103.38-1.78 103.46-1.75L103.97-1.53C104.05-1.49 104.12-1.45 104.20-1.41C104.27-1.38 104.33-1.34 104.38-1.29C104.43-1.25 104.48-1.19 104.51-1.13C104.54-1.07 104.55-0.99 104.55-0.90C104.55-0.73 104.49-0.59 104.36-0.49C104.23-0.38 104.05-0.33 103.81-0.33C103.63-0.33 103.46-0.37 103.29-0.45C103.12-0.53 102.97-0.64 102.84-0.77ZM106.24-3.15L106.24 0L106.69 0L106.69-3.15L107.75-3.15L107.75-3.53L105.17-3.53L105.17-3.15ZM108.94-3.53L109.69 0L110.22 0L110.74-2.12C110.77-2.26 110.80-2.39 110.83-2.52C110.86-2.65 110.89-2.79 110.92-2.92L110.94-2.92C110.97-2.79 111.00-2.65 111.02-2.52C111.05-2.39 111.08-2.26 111.11-2.12L111.65 0L112.18 0L112.91-3.53L112.48-3.53L112.11-1.61C112.08-1.42 112.04-1.23 112.01-1.04C111.98-0.85 111.95-0.66 111.91-0.47L111.89-0.47C111.85-0.66 111.81-0.85 111.76-1.04C111.72-1.23 111.68-1.42 111.63-1.61L111.15-3.53L110.74-3.53L110.25-1.61C110.21-1.42 110.17-1.23 110.12-1.04C110.08-0.85 110.04-0.66 110.00-0.47L109.98-0.47C109.95-0.66 109.91-0.85 109.88-1.04C109.84-1.22 109.81-1.41 109.77-1.61L109.40-3.53ZM113.44-3.53L113.44 0L115.53 0L115.53-0.38L113.89-0.38L113.89-1.66L115.22-1.66L115.22-2.04L113.89-2.04L113.89-3.15L115.47-3.15L115.47-3.53ZM116.98-1.76C116.98-1.48 117.02-1.22 117.10-0.99C117.17-0.76 117.28-0.57 117.42-0.42C117.56-0.26 117.72-0.14 117.91-0.06C118.10 0.02 118.30 0.06 118.52 0.06C118.75 0.06 118.95 0.02 119.13-0.07C119.30-0.16 119.46-0.28 119.60-0.45L119.35-0.72C119.23-0.59 119.11-0.50 118.98-0.43C118.86-0.36 118.71-0.33 118.53-0.33C118.37-0.33 118.21-0.36 118.08-0.43C117.95-0.50 117.83-0.59 117.74-0.72C117.65-0.85 117.57-1.00 117.52-1.17C117.47-1.35 117.44-1.55 117.44-1.77C117.44-1.99 117.47-2.19 117.52-2.37C117.58-2.54 117.65-2.69 117.75-2.81C117.85-2.94 117.96-3.03 118.10-3.10C118.24-3.17 118.39-3.20 118.56-3.20C118.71-3.20 118.84-3.17 118.95-3.11C119.06-3.05 119.17-2.97 119.26-2.87L119.51-3.16C119.41-3.27 119.28-3.37 119.12-3.46C118.95-3.55 118.77-3.59 118.55-3.59C118.32-3.59 118.12-3.55 117.92-3.46C117.73-3.38 117.57-3.26 117.43-3.10C117.29-2.94 117.18-2.75 117.10-2.53C117.02-2.30 116.98-2.05 116.98-1.76ZM121.67-1.44L120.61-1.44L120.78-1.97C120.84-2.17 120.90-2.37 120.96-2.56C121.02-2.76 121.07-2.96 121.12-3.16L121.15-3.16C121.20-2.96 121.26-2.76 121.32-2.56C121.38-2.37 121.44-2.17 121.50-1.97ZM121.78-1.08L122.11 0L122.59 0L121.40-3.53L120.89-3.53L119.70 0L120.16 0L120.50-1.08ZM123.01-3.53L123.01 0L123.43 0L123.43-1.84C123.43-2.03 123.42-2.22 123.41-2.40C123.40-2.59 123.39-2.77 123.37-2.95L123.39-2.95L123.77-2.22L125.05 0L125.52 0L125.52-3.53L125.09-3.53L125.09-1.70C125.09-1.52 125.10-1.33 125.11-1.14C125.12-0.95 125.13-0.76 125.15-0.58L125.12-0.58L124.74-1.31L123.47-3.53Z" transform="translate(-0.1236508002150449, 3.5912493279847824)"></path></g></g></g></g></g><defs v-gra="od"></defs></svg>