<svg data-v-2cb57da0="" version="1.0" xmlns="http://www.w3.org/2000/svg" xmlns:xlink="http://www.w3.org/1999/xlink" width="100%" height="100%" viewBox="0 0 340.000000 250.000000" preserveAspectRatio="xMidYMid meet" color-interpolation-filters="sRGB" style="margin: auto;"><rect data-v-2cb57da0="" x="0" y="0" width="100%" height="100%" fill="#339966" fill-opacity="1" class="background"></rect> <rect data-v-2cb57da0="" x="0" y="0" width="100%" height="100%" fill="url(#watermark)" fill-opacity="1" class="watermarklayer"></rect> <g data-v-2cb57da0="" fill="#feffff" class="bordersvg b-d1" transform="translate(61.929415702819824,65.35500717163086)"><path fill-opacity="0" stroke="#feffff" stroke-width="3" d="M 109.28999328613281 17.378257751464844 A 59.644996643066406 59.644996643066406 0 1 0 109.28999328613281 101.91173553466797"></path> <g transform="translate(10,17.378257751464844)"><g><rect data-gra="graph-name-bg" stroke-width="2" class="i-icon-bg" x="0" y="0" width="198.57998657226562" height="84.53347778320312" fill-opacity="0"></rect> <!----> <!----> </g> <g transform="translate(10,3)"><g data-gra="path-name" fill-rule="" class="tp-name" transform="translate(0,0)"><g transform="scale(1)"><g><path d="M6.61-14.25L6.61-14.25Q8.08-14.25 9.38-13.69 10.69-13.13 11.65-12.16 12.62-11.19 13.18-9.89 13.74-8.59 13.74-7.12L13.74-7.12Q13.74-5.66 13.18-4.36 12.62-3.05 11.65-2.09 10.69-1.12 9.38-0.56 8.08 0 6.61 0L6.61 0 4.09 0 5.09-2.44 6.61-2.44Q7.55-2.44 8.41-2.8 9.26-3.15 9.93-3.81L9.93-3.81Q10.58-4.48 10.94-5.32 11.3-6.17 11.3-7.12L11.3-7.12Q11.3-8.06 10.94-8.91 10.58-9.77 9.93-10.44L9.93-10.44Q9.26-11.09 8.41-11.45 7.55-11.8 6.61-11.8L6.61-11.8 3.15-11.8 3.15-5.9 3.15-2.44 3.15 0 0.71 0 0.71-14.25 6.61-14.25ZM17.5-14.23L17.5-14.23 17.5 0 15.06 0 15.06-14.23 17.5-14.23ZM27.64-14.25L27.64-14.25 34.07 0 31.38 0 30.28-2.44 30.28-2.44 29.19-4.88 29.19-4.88 26.3-11.28 23.41-4.88 27.11-4.88 28.21-2.44 22.31-2.44 21.21 0 18.52 0 24.95-14.25 27.64-14.25ZM46.59-14.27L46.59-14.27 49.25-14.27 49.25-0.02 46.81-0.02 46.81-10.12 42.11-2.85 37.43-10.12 37.43-0.02 34.99-0.02 34.99-14.27 37.65-14.27 42.11-7.35 46.59-14.27ZM57.88-12.11L57.88-12.11Q56.89-12.11 55.99-11.73 55.09-11.36 54.38-10.64L54.38-10.64Q53.67-9.93 53.29-9.04 52.92-8.14 52.92-7.14L52.92-7.14Q52.92-6.15 53.29-5.24 53.67-4.34 54.38-3.62L54.38-3.62Q55.09-2.91 55.99-2.54 56.89-2.18 57.88-2.18L57.88-2.18Q58.88-2.18 59.79-2.54 60.69-2.91 61.4-3.62L61.4-3.62Q62.12-4.34 62.48-5.24 62.85-6.15 62.85-7.14L62.85-7.14Q62.85-8.14 62.48-9.04 62.12-9.93 61.4-10.64L61.4-10.64Q60.69-11.36 59.79-11.73 58.88-12.11 57.88-12.11ZM57.88-14.55L57.88-14.55Q59.41-14.55 60.76-13.97 62.12-13.39 63.12-12.38 64.13-11.38 64.71-10.02 65.29-8.67 65.29-7.14L65.29-7.14Q65.29-5.62 64.71-4.26 64.13-2.91 63.12-1.9 62.12-0.9 60.76-0.32 59.41 0.26 57.88 0.26L57.88 0.26Q56.36 0.26 55-0.32 53.65-0.9 52.64-1.9 51.64-2.91 51.05-4.26 50.47-5.62 50.47-7.14L50.47-7.14Q50.47-8.67 51.05-10.02 51.64-11.38 52.64-12.38 53.65-13.39 55-13.97 56.36-14.55 57.88-14.55ZM74.88-14.27L74.88-14.27 77.32-14.27 77.32-0.02 74.67-0.02 68.96-9.77 68.96-0.02 66.51-0.02 66.51-14.27 69.16-14.27 74.88-4.52 74.88-14.27ZM84.65-14.25L84.65-14.25Q86.11-14.25 87.42-13.69 88.72-13.13 89.68-12.16 90.65-11.19 91.21-9.89 91.77-8.59 91.77-7.12L91.77-7.12Q91.77-5.66 91.21-4.36 90.65-3.05 89.68-2.09 88.72-1.12 87.42-0.56 86.11 0 84.65 0L84.65 0 82.12 0 83.12-2.44 84.65-2.44Q85.58-2.44 86.44-2.8 87.29-3.15 87.96-3.81L87.96-3.81Q88.62-4.48 88.97-5.32 89.33-6.17 89.33-7.12L89.33-7.12Q89.33-8.06 88.97-8.91 88.62-9.77 87.96-10.44L87.96-10.44Q87.29-11.09 86.44-11.45 85.58-11.8 84.65-11.8L84.65-11.8 81.19-11.8 81.19-5.9 81.19-2.44 81.19 0 78.74 0 78.74-14.25 84.65-14.25ZM105.43-14.25L105.43-14.25 107.87-14.25 107.87 0 105.43 0 105.43-5.9 99.5-5.9 99.5 0 97.06 0 97.06-14.25 99.5-14.25 99.5-8.34 105.43-8.34 105.43-14.25ZM116.5-12.11L116.5-12.11Q115.5-12.11 114.61-11.73 113.71-11.36 113-10.64L113-10.64Q112.29-9.93 111.91-9.04 111.53-8.14 111.53-7.14L111.53-7.14Q111.53-6.15 111.91-5.24 112.29-4.34 113-3.62L113-3.62Q113.71-2.91 114.61-2.54 115.5-2.18 116.5-2.18L116.5-2.18Q117.5-2.18 118.4-2.54 119.31-2.91 120.02-3.62L120.02-3.62Q120.73-4.34 121.1-5.24 121.47-6.15 121.47-7.14L121.47-7.14Q121.47-8.14 121.1-9.04 120.73-9.93 120.02-10.64L120.02-10.64Q119.31-11.36 118.4-11.73 117.5-12.11 116.5-12.11ZM116.5-14.55L116.5-14.55Q118.03-14.55 119.38-13.97 120.73-13.39 121.74-12.38 122.75-11.38 123.33-10.02 123.91-8.67 123.91-7.14L123.91-7.14Q123.91-5.62 123.33-4.26 122.75-2.91 121.74-1.9 120.73-0.9 119.38-0.32 118.03 0.26 116.5 0.26L116.5 0.26Q114.97 0.26 113.62-0.32 112.27-0.9 111.26-1.9 110.25-2.91 109.67-4.26 109.09-5.62 109.09-7.14L109.09-7.14Q109.09-8.67 109.67-10.02 110.25-11.38 111.26-12.38 112.27-13.39 113.62-13.97 114.97-14.55 116.5-14.55ZM135.57-9.14L135.57-9.14Q135.57-8.36 135.36-7.66 135.14-6.96 134.77-6.37 134.39-5.78 133.85-5.3 133.31-4.82 132.66-4.52L132.66-4.52 135.57 0 132.66 0 130.07-4.01 128.41-4.01 129.4-6.45 130.46-6.45Q131.56-6.45 132.35-7.25L132.35-7.25Q132.72-7.63 132.92-8.12 133.13-8.61 133.13-9.14L133.13-9.14Q133.13-9.67 132.92-10.16 132.72-10.64 132.35-11.01L132.35-11.01Q131.56-11.8 130.46-11.8L130.46-11.8 127.57-11.8 127.57-10.46 127.57-6.45 127.57-4.01 127.57 0 125.13 0 125.13-4.01 125.13-10.46 125.13-14.25 130.46-14.25Q131.52-14.25 132.45-13.84 133.37-13.43 134.06-12.74 134.76-12.05 135.16-11.12 135.57-10.2 135.57-9.14ZM139.44-14.23L139.44-14.23 139.44 0 136.99 0 136.99-14.23 139.44-14.23ZM151.53-14.25L151.53-14.25 151.53-12.25 144.08-2.44 151.53-2.44 151.53 0 142.2 0 142.2 0 140.66 0 140.66-1.99 148.11-11.8 140.66-11.8 140.66-14.25 149.98-14.25 149.98-14.25 151.53-14.25ZM159.85-12.11L159.85-12.11Q158.85-12.11 157.96-11.73 157.06-11.36 156.35-10.64L156.35-10.64Q155.64-9.93 155.26-9.04 154.88-8.14 154.88-7.14L154.88-7.14Q154.88-6.15 155.26-5.24 155.64-4.34 156.35-3.62L156.35-3.62Q157.06-2.91 157.96-2.54 158.85-2.18 159.85-2.18L159.85-2.18Q160.85-2.18 161.75-2.54 162.66-2.91 163.37-3.62L163.37-3.62Q164.08-4.34 164.45-5.24 164.82-6.15 164.82-7.14L164.82-7.14Q164.82-8.14 164.45-9.04 164.08-9.93 163.37-10.64L163.37-10.64Q162.66-11.36 161.75-11.73 160.85-12.11 159.85-12.11ZM159.85-14.55L159.85-14.55Q161.38-14.55 162.73-13.97 164.08-13.39 165.09-12.38 166.1-11.38 166.68-10.02 167.26-8.67 167.26-7.14L167.26-7.14Q167.26-5.62 166.68-4.26 166.1-2.91 165.09-1.9 164.08-0.9 162.73-0.32 161.38 0.26 159.85 0.26L159.85 0.26Q158.32 0.26 156.97-0.32 155.62-0.9 154.61-1.9 153.6-2.91 153.02-4.26 152.44-5.62 152.44-7.14L152.44-7.14Q152.44-8.67 153.02-10.02 153.6-11.38 154.61-12.38 155.62-13.39 156.97-13.97 158.32-14.55 159.85-14.55ZM176.85-14.27L176.85-14.27 179.29-14.27 179.29-0.02 176.64-0.02 170.92-9.77 170.92-0.02 168.48-0.02 168.48-14.27 171.13-14.27 176.85-4.52 176.85-14.27Z" transform="translate(-0.7099999785423279, 14.550000190734863)"></path></g> <!----> <!----> <!----> <!----> <!----> <!----> <g data-gra="path-name-1" fill="#feffff" transform="translate(0,17.8100004196167)"><g transform="scale(1.00978)"><path d="M36.1-26.16L36.1-26.16Q38.9-24.21 40.58-21.13 42.25-18.05 42.25-14.41L42.25-14.41 42.25-14.27Q42.25-11.33 41.13-8.71 40.02-6.09 38.06-4.16 36.1-2.24 33.51-1.12 30.92 0 27.98 0L27.98 0 14.06 0 17.42-8.39 27.98-8.39Q30.43-8.39 32.15-10.11 33.86-11.82 33.86-14.27L33.86-14.27 33.86-14.41Q33.86-16.86 32.15-18.57 30.43-20.29 27.98-20.29L27.98-20.29 24.55-20.29 10.84-20.29 10.84-8.39 10.84 0 2.45 0 2.45-20.29 2.45-28.68 2.45-48.97 24.55-48.97Q27.49-48.97 30.12-47.85 32.74-46.73 34.66-44.77 36.59-42.81 37.71-40.23 38.83-37.64 38.83-34.7L38.83-34.7 38.83-34.56Q38.83-32.18 38.09-30.05 37.36-27.91 36.1-26.16ZM30.43-34.56L30.43-34.7Q30.43-37.15 28.72-38.86 27-40.58 24.55-40.58L24.55-40.58 10.84-40.58 10.84-28.68 24.55-28.68Q27-28.68 28.72-30.4 30.43-32.11 30.43-34.56L30.43-34.56ZM73.11-48.97L73.11-48.97 95.21 0 85.98 0 82.2-8.39 82.2-8.39 78.42-16.79 78.42-16.79 68.49-38.76 58.55-16.79 71.29-16.79 75.06-8.39 54.78-8.39 51 0 41.76 0 63.87-48.97 73.11-48.97ZM127.11-49.04L127.11-49.04 135.51-49.04 135.51-0.07 126.41-0.07 106.75-33.58 106.75-0.07 98.36-0.07 98.36-49.04 107.45-49.04 127.11-15.53 127.11-49.04ZM179.3 0.14L179.3 0.14 167.41 0.14 148.8-18.47 148.8 0 140.4 0 140.4-48.9 148.8-48.9 148.8-30.36 167.27-48.83 179.16-48.83 154.75-24.42 179.3 0.14Z" transform="translate(-2.450000047683716, 49.040000915527344)"></path></g></g></g></g> <g data-gra="path-slogan" fill-rule="" class="tp-slogan" transform="translate(1.709991455078125,73.47098541259766)"><!----> <!----> <g transform="scale(1, 1)"><g transform="scale(1)"><path d="M0.17-4.88L1.21 0L1.94 0L2.66-2.94C2.70-3.13 2.75-3.31 2.79-3.49C2.83-3.68 2.87-3.86 2.91-4.05L2.94-4.05C2.98-3.86 3.02-3.68 3.06-3.49C3.09-3.31 3.13-3.13 3.18-2.94L3.92 0L4.66 0L5.67-4.88L5.08-4.88L4.56-2.23C4.51-1.96 4.47-1.70 4.42-1.44C4.38-1.18 4.33-0.92 4.29-0.65L4.26-0.65C4.20-0.92 4.14-1.18 4.08-1.44C4.02-1.71 3.96-1.97 3.90-2.23L3.22-4.88L2.66-4.88L1.98-2.23C1.93-1.96 1.87-1.70 1.81-1.44C1.75-1.18 1.69-0.92 1.64-0.65L1.61-0.65C1.56-0.92 1.52-1.18 1.47-1.44C1.42-1.69 1.37-1.96 1.33-2.23L0.81-4.88ZM6.43-4.88L6.43 0L9.32 0L9.32-0.53L7.05-0.53L7.05-2.30L8.91-2.30L8.91-2.83L7.05-2.83L7.05-4.36L9.25-4.36L9.25-4.88ZM11.70-1.06L11.33-0.63C11.54-0.41 11.80-0.23 12.09-0.10C12.38 0.02 12.70 0.09 13.04 0.09C13.30 0.09 13.53 0.05 13.73-0.02C13.94-0.09 14.11-0.19 14.25-0.32C14.40-0.44 14.51-0.59 14.59-0.76C14.66-0.93 14.70-1.11 14.70-1.30C14.70-1.48 14.68-1.64 14.62-1.78C14.57-1.91 14.50-2.03 14.41-2.13C14.32-2.23 14.21-2.32 14.09-2.40C13.97-2.48 13.84-2.55 13.70-2.61L13.00-2.90C12.90-2.94 12.81-2.99 12.71-3.03C12.62-3.08 12.53-3.14 12.45-3.20C12.37-3.26 12.31-3.33 12.26-3.41C12.22-3.49 12.19-3.60 12.19-3.71C12.19-3.94 12.28-4.11 12.44-4.24C12.61-4.37 12.83-4.43 13.10-4.43C13.33-4.43 13.53-4.39 13.71-4.31C13.90-4.22 14.06-4.11 14.21-3.97L14.54-4.37C14.37-4.55 14.16-4.69 13.91-4.81C13.66-4.92 13.39-4.97 13.10-4.97C12.88-4.97 12.67-4.94 12.49-4.88C12.30-4.81 12.14-4.72 12.00-4.60C11.87-4.49 11.76-4.35 11.68-4.19C11.61-4.03 11.57-3.86 11.57-3.68C11.57-3.50 11.60-3.34 11.66-3.20C11.72-3.07 11.79-2.95 11.89-2.85C11.98-2.75 12.09-2.67 12.21-2.60C12.33-2.53 12.44-2.47 12.56-2.42L13.26-2.11C13.37-2.06 13.48-2.01 13.58-1.96C13.68-1.91 13.76-1.85 13.83-1.79C13.91-1.73 13.96-1.65 14.01-1.57C14.05-1.48 14.07-1.37 14.07-1.25C14.07-1.01 13.98-0.82 13.80-0.67C13.62-0.53 13.37-0.45 13.05-0.45C12.80-0.45 12.55-0.51 12.32-0.62C12.08-0.73 11.88-0.88 11.70-1.06ZM15.57-4.88L15.57 0L18.46 0L18.46-0.53L16.19-0.53L16.19-2.30L18.05-2.30L18.05-2.83L16.19-2.83L16.19-4.36L18.39-4.36L18.39-4.88ZM19.13-2.44C19.13-2.04 19.18-1.69 19.29-1.37C19.39-1.06 19.54-0.79 19.73-0.58C19.93-0.36 20.15-0.20 20.41-0.08C20.67 0.03 20.96 0.09 21.26 0.09C21.58 0.09 21.85 0.03 22.10-0.10C22.34-0.22 22.56-0.39 22.75-0.62L22.40-1.00C22.24-0.82 22.08-0.69 21.90-0.60C21.72-0.50 21.52-0.45 21.28-0.45C21.05-0.45 20.84-0.50 20.65-0.60C20.46-0.69 20.31-0.82 20.18-1.00C20.05-1.17 19.95-1.38 19.88-1.63C19.80-1.87 19.77-2.15 19.77-2.46C19.77-2.76 19.81-3.03 19.88-3.28C19.95-3.52 20.06-3.73 20.19-3.90C20.33-4.07 20.49-4.20 20.68-4.29C20.86-4.38 21.08-4.43 21.31-4.43C21.52-4.43 21.70-4.39 21.86-4.31C22.01-4.22 22.15-4.11 22.28-3.98L22.63-4.37C22.49-4.53 22.31-4.67 22.08-4.79C21.86-4.91 21.60-4.97 21.30-4.97C20.99-4.97 20.70-4.91 20.43-4.80C20.17-4.68 19.94-4.51 19.75-4.30C19.55-4.08 19.40-3.81 19.29-3.50C19.18-3.19 19.13-2.83 19.13-2.44ZM23.45-4.88L23.45-2.02C23.45-1.63 23.49-1.30 23.58-1.03C23.67-0.76 23.79-0.54 23.95-0.38C24.11-0.21 24.29-0.09 24.51-0.02C24.72 0.05 24.96 0.09 25.20 0.09C25.45 0.09 25.68 0.05 25.90-0.02C26.11-0.09 26.29-0.21 26.45-0.38C26.61-0.54 26.73-0.76 26.82-1.03C26.91-1.30 26.95-1.63 26.95-2.02L26.95-4.88L26.36-4.88L26.36-2.00C26.36-1.71 26.33-1.46 26.27-1.27C26.21-1.07 26.13-0.91 26.02-0.79C25.92-0.67 25.80-0.58 25.66-0.53C25.52-0.48 25.37-0.45 25.20-0.45C25.05-0.45 24.90-0.48 24.76-0.53C24.62-0.58 24.50-0.67 24.40-0.79C24.29-0.91 24.21-1.07 24.15-1.27C24.10-1.46 24.07-1.71 24.07-2.00L24.07-4.88ZM28.80-2.57L28.80-4.38L29.62-4.38C30.00-4.38 30.30-4.32 30.50-4.19C30.70-4.06 30.80-3.84 30.80-3.51C30.80-3.20 30.70-2.96 30.50-2.80C30.30-2.65 30.00-2.57 29.62-2.57ZM30.86 0L31.56 0L30.33-2.13C30.66-2.21 30.93-2.37 31.12-2.60C31.32-2.83 31.42-3.13 31.42-3.51C31.42-3.77 31.38-3.98 31.30-4.15C31.21-4.33 31.09-4.47 30.94-4.58C30.79-4.69 30.61-4.77 30.40-4.81C30.19-4.86 29.96-4.88 29.71-4.88L28.18-4.88L28.18 0L28.80 0L28.80-2.06L29.69-2.06ZM32.42-4.88L32.42 0L35.31 0L35.31-0.53L33.04-0.53L33.04-2.30L34.89-2.30L34.89-2.83L33.04-2.83L33.04-4.36L35.24-4.36L35.24-4.88ZM39.75-1.99L38.29-1.99L38.52-2.73C38.61-3.00 38.69-3.28 38.77-3.55C38.85-3.82 38.93-4.09 39.00-4.38L39.03-4.38C39.11-4.09 39.19-3.82 39.27-3.55C39.35-3.28 39.43-3.00 39.52-2.73ZM39.91-1.49L40.37 0L41.03 0L39.38-4.88L38.68-4.88L37.03 0L37.66 0L38.13-1.49ZM41.64-4.88L41.64 0L42.23 0L42.23-2.55C42.23-2.81 42.22-3.07 42.20-3.32C42.18-3.58 42.16-3.83 42.14-4.08L42.17-4.08L42.70-3.07L44.47 0L45.11 0L45.11-4.88L44.53-4.88L44.53-2.36C44.53-2.10 44.53-1.84 44.55-1.57C44.57-1.31 44.59-1.05 44.60-0.80L44.57-0.80L44.04-1.82L42.28-4.88ZM46.37-4.88L46.37 0L47.62 0C47.98 0 48.31-0.06 48.59-0.17C48.88-0.28 49.11-0.44 49.31-0.65C49.50-0.86 49.65-1.12 49.75-1.43C49.85-1.73 49.89-2.08 49.89-2.46C49.89-3.24 49.70-3.84 49.31-4.26C48.91-4.67 48.34-4.88 47.59-4.88ZM47.54-0.51L46.98-0.51L46.98-4.38L47.54-4.38C48.11-4.38 48.54-4.21 48.83-3.89C49.11-3.56 49.25-3.08 49.25-2.46C49.25-1.84 49.11-1.36 48.83-1.02C48.54-0.68 48.11-0.51 47.54-0.51ZM52.27-4.88L52.27 0L53.52 0C53.89 0 54.22-0.06 54.50-0.17C54.78-0.28 55.02-0.44 55.21-0.65C55.41-0.86 55.55-1.12 55.65-1.43C55.75-1.73 55.80-2.08 55.80-2.46C55.80-3.24 55.61-3.84 55.21-4.26C54.82-4.67 54.25-4.88 53.49-4.88ZM53.45-0.51L52.89-0.51L52.89-4.38L53.45-4.38C54.02-4.38 54.45-4.21 54.73-3.89C55.02-3.56 55.16-3.08 55.16-2.46C55.16-1.84 55.02-1.36 54.73-1.02C54.45-0.68 54.02-0.51 53.45-0.51ZM58.57 0.09C58.87 0.09 59.16 0.03 59.41-0.09C59.67-0.21 59.89-0.38 60.07-0.60C60.26-0.82 60.40-1.09 60.51-1.40C60.61-1.72 60.66-2.07 60.66-2.46C60.66-2.85 60.61-3.20 60.51-3.51C60.40-3.82 60.26-4.08 60.07-4.30C59.89-4.51 59.67-4.68 59.41-4.80C59.16-4.91 58.87-4.97 58.57-4.97C58.26-4.97 57.98-4.92 57.72-4.80C57.47-4.69 57.25-4.52 57.06-4.31C56.88-4.09 56.74-3.83 56.63-3.52C56.53-3.21 56.48-2.86 56.48-2.46C56.48-2.07 56.53-1.72 56.63-1.40C56.74-1.09 56.88-0.82 57.06-0.60C57.25-0.38 57.47-0.21 57.72-0.09C57.98 0.03 58.26 0.09 58.57 0.09ZM58.57-0.45C58.35-0.45 58.15-0.50 57.97-0.60C57.80-0.69 57.65-0.83 57.52-1.00C57.39-1.18 57.30-1.39 57.23-1.63C57.16-1.88 57.12-2.16 57.12-2.46C57.12-2.77 57.16-3.04 57.23-3.28C57.30-3.53 57.39-3.73 57.52-3.90C57.65-4.07 57.80-4.20 57.97-4.29C58.15-4.38 58.35-4.43 58.57-4.43C58.78-4.43 58.98-4.38 59.16-4.29C59.33-4.20 59.49-4.07 59.61-3.90C59.74-3.73 59.84-3.53 59.91-3.28C59.98-3.04 60.01-2.77 60.01-2.46C60.01-2.16 59.98-1.88 59.91-1.63C59.84-1.39 59.74-1.18 59.61-1.00C59.49-0.83 59.33-0.69 59.16-0.60C58.98-0.50 58.78-0.45 58.57-0.45ZM61.60-4.88L61.60-2.02C61.60-1.63 61.64-1.30 61.73-1.03C61.82-0.76 61.94-0.54 62.10-0.38C62.26-0.21 62.44-0.09 62.66-0.02C62.88 0.05 63.11 0.09 63.36 0.09C63.60 0.09 63.83 0.05 64.05-0.02C64.26-0.09 64.45-0.21 64.60-0.38C64.76-0.54 64.88-0.76 64.97-1.03C65.06-1.30 65.10-1.63 65.10-2.02L65.10-4.88L64.51-4.88L64.51-2.00C64.51-1.71 64.48-1.46 64.42-1.27C64.36-1.07 64.28-0.91 64.17-0.79C64.07-0.67 63.95-0.58 63.81-0.53C63.67-0.48 63.52-0.45 63.36-0.45C63.20-0.45 63.05-0.48 62.91-0.53C62.77-0.58 62.65-0.67 62.55-0.79C62.45-0.91 62.37-1.07 62.31-1.27C62.25-1.46 62.22-1.71 62.22-2.00L62.22-4.88ZM66.34-4.88L66.34 0L67.89 0C68.16 0 68.41-0.03 68.64-0.09C68.87-0.15 69.07-0.24 69.23-0.36C69.39-0.48 69.52-0.63 69.61-0.80C69.70-0.98 69.74-1.19 69.74-1.43C69.74-1.77 69.65-2.03 69.45-2.23C69.25-2.42 68.97-2.54 68.61-2.60L68.61-2.63C68.90-2.70 69.11-2.84 69.25-3.03C69.39-3.23 69.46-3.45 69.46-3.69C69.46-3.91 69.42-4.09 69.34-4.24C69.26-4.39 69.14-4.51 69.00-4.61C68.85-4.70 68.67-4.77 68.47-4.82C68.26-4.86 68.03-4.88 67.79-4.88ZM67.68-2.80L66.95-2.80L66.95-4.39L67.70-4.39C68.09-4.39 68.37-4.33 68.56-4.22C68.76-4.10 68.85-3.91 68.85-3.64C68.85-3.37 68.76-3.16 68.58-3.01C68.40-2.87 68.10-2.80 67.68-2.80ZM67.80-0.49L66.95-0.49L66.95-2.34L67.80-2.34C68.23-2.34 68.56-2.27 68.79-2.13C69.02-1.98 69.13-1.76 69.13-1.46C69.13-1.13 69.02-0.88 68.78-0.73C68.55-0.57 68.22-0.49 67.80-0.49ZM70.63-4.88L70.63 0L73.38 0L73.38-0.53L71.24-0.53L71.24-4.88ZM74.16-4.88L74.16 0L77.04 0L77.04-0.53L74.77-0.53L74.77-2.30L76.63-2.30L76.63-2.83L74.77-2.83L74.77-4.36L76.97-4.36L76.97-4.88ZM80.20-1.89L80.20 0L80.82 0L80.82-1.89L82.29-4.88L81.64-4.88L81.02-3.51C80.94-3.33 80.86-3.15 80.78-2.98C80.69-2.80 80.61-2.63 80.53-2.44L80.50-2.44C80.41-2.63 80.33-2.80 80.26-2.98C80.18-3.15 80.11-3.33 80.03-3.51L79.39-4.88L78.73-4.88ZM84.56 0.09C84.87 0.09 85.15 0.03 85.41-0.09C85.66-0.21 85.88-0.38 86.07-0.60C86.26-0.82 86.40-1.09 86.50-1.40C86.60-1.72 86.65-2.07 86.65-2.46C86.65-2.85 86.60-3.20 86.50-3.51C86.40-3.82 86.26-4.08 86.07-4.30C85.88-4.51 85.66-4.68 85.41-4.80C85.15-4.91 84.87-4.97 84.56-4.97C84.25-4.97 83.97-4.92 83.72-4.80C83.46-4.69 83.24-4.52 83.06-4.31C82.88-4.09 82.73-3.83 82.63-3.52C82.53-3.21 82.48-2.86 82.48-2.46C82.48-2.07 82.53-1.72 82.63-1.40C82.73-1.09 82.88-0.82 83.06-0.60C83.24-0.38 83.46-0.21 83.72-0.09C83.97 0.03 84.25 0.09 84.56 0.09ZM84.56-0.45C84.34-0.45 84.15-0.50 83.97-0.60C83.79-0.69 83.64-0.83 83.52-1.00C83.39-1.18 83.29-1.39 83.22-1.63C83.15-1.88 83.12-2.16 83.12-2.46C83.12-2.77 83.15-3.04 83.22-3.28C83.29-3.53 83.39-3.73 83.52-3.90C83.64-4.07 83.79-4.20 83.97-4.29C84.15-4.38 84.34-4.43 84.56-4.43C84.78-4.43 84.98-4.38 85.15-4.29C85.33-4.20 85.48-4.07 85.61-3.90C85.73-3.73 85.83-3.53 85.90-3.28C85.97-3.04 86.01-2.77 86.01-2.46C86.01-2.16 85.97-1.88 85.90-1.63C85.83-1.39 85.73-1.18 85.61-1.00C85.48-0.83 85.33-0.69 85.15-0.60C84.98-0.50 84.78-0.45 84.56-0.45ZM87.59-4.88L87.59-2.02C87.59-1.63 87.64-1.30 87.73-1.03C87.82-0.76 87.94-0.54 88.10-0.38C88.25-0.21 88.44-0.09 88.66-0.02C88.87 0.05 89.10 0.09 89.35 0.09C89.60 0.09 89.83 0.05 90.04-0.02C90.26-0.09 90.44-0.21 90.60-0.38C90.75-0.54 90.88-0.76 90.97-1.03C91.06-1.30 91.10-1.63 91.10-2.02L91.10-4.88L90.50-4.88L90.50-2.00C90.50-1.71 90.48-1.46 90.42-1.27C90.36-1.07 90.27-0.91 90.17-0.79C90.07-0.67 89.94-0.58 89.81-0.53C89.67-0.48 89.51-0.45 89.35-0.45C89.19-0.45 89.04-0.48 88.90-0.53C88.77-0.58 88.65-0.67 88.54-0.79C88.44-0.91 88.36-1.07 88.30-1.27C88.24-1.46 88.21-1.71 88.21-2.00L88.21-4.88ZM92.95-2.57L92.95-4.38L93.77-4.38C94.15-4.38 94.44-4.32 94.65-4.19C94.85-4.06 94.95-3.84 94.95-3.51C94.95-3.20 94.85-2.96 94.65-2.80C94.44-2.65 94.15-2.57 93.77-2.57ZM95.01 0L95.71 0L94.47-2.13C94.81-2.21 95.07-2.37 95.27-2.60C95.47-2.83 95.57-3.13 95.57-3.51C95.57-3.77 95.53-3.98 95.44-4.15C95.36-4.33 95.24-4.47 95.09-4.58C94.94-4.69 94.76-4.77 94.55-4.81C94.33-4.86 94.11-4.88 93.86-4.88L92.33-4.88L92.33 0L92.95 0L92.95-2.06L93.83-2.06ZM97.99-4.88L97.99 0L98.56 0L98.56-2.69C98.56-2.91 98.55-3.15 98.53-3.41C98.51-3.67 98.49-3.91 98.48-4.13L98.51-4.13L98.89-3.04L99.84-0.49L100.19-0.49L101.13-3.04L101.52-4.13L101.55-4.13C101.53-3.91 101.51-3.67 101.50-3.41C101.48-3.15 101.47-2.91 101.47-2.69L101.47 0L102.06 0L102.06-4.88L101.33-4.88L100.39-2.26L100.05-1.27L100.02-1.27L99.66-2.26L98.72-4.88ZM105.11 0.09C105.42 0.09 105.70 0.03 105.96-0.09C106.21-0.21 106.43-0.38 106.62-0.60C106.81-0.82 106.95-1.09 107.05-1.40C107.15-1.72 107.20-2.07 107.20-2.46C107.20-2.85 107.15-3.20 107.05-3.51C106.95-3.82 106.81-4.08 106.62-4.30C106.43-4.51 106.21-4.68 105.96-4.80C105.70-4.91 105.42-4.97 105.11-4.97C104.80-4.97 104.52-4.92 104.27-4.80C104.01-4.69 103.79-4.52 103.61-4.31C103.42-4.09 103.28-3.83 103.18-3.52C103.08-3.21 103.03-2.86 103.03-2.46C103.03-2.07 103.08-1.72 103.18-1.40C103.28-1.09 103.42-0.82 103.61-0.60C103.79-0.38 104.01-0.21 104.27-0.09C104.52 0.03 104.80 0.09 105.11 0.09ZM105.11-0.45C104.89-0.45 104.70-0.50 104.52-0.60C104.34-0.69 104.19-0.83 104.07-1.00C103.94-1.18 103.84-1.39 103.77-1.63C103.70-1.88 103.67-2.16 103.67-2.46C103.67-2.77 103.70-3.04 103.77-3.28C103.84-3.53 103.94-3.73 104.07-3.90C104.19-4.07 104.34-4.20 104.52-4.29C104.70-4.38 104.89-4.43 105.11-4.43C105.33-4.43 105.53-4.38 105.70-4.29C105.88-4.20 106.03-4.07 106.16-3.90C106.28-3.73 106.38-3.53 106.45-3.28C106.52-3.04 106.56-2.77 106.56-2.46C106.56-2.16 106.52-1.88 106.45-1.63C106.38-1.39 106.28-1.18 106.16-1.00C106.03-0.83 105.88-0.69 105.70-0.60C105.53-0.50 105.33-0.45 105.11-0.45ZM108.17-4.88L108.17 0L108.75 0L108.75-2.55C108.75-2.81 108.75-3.07 108.73-3.32C108.71-3.58 108.69-3.83 108.67-4.08L108.70-4.08L109.23-3.07L111.00 0L111.64 0L111.64-4.88L111.05-4.88L111.05-2.36C111.05-2.10 111.06-1.84 111.08-1.57C111.10-1.31 111.11-1.05 111.13-0.80L111.10-0.80L110.57-1.82L108.81-4.88ZM112.90-4.88L112.90 0L115.78 0L115.78-0.53L113.51-0.53L113.51-2.30L115.37-2.30L115.37-2.83L113.51-2.83L113.51-4.36L115.71-4.36L115.71-4.88ZM117.52-1.89L117.52 0L118.15 0L118.15-1.89L119.61-4.88L118.96-4.88L118.34-3.51C118.26-3.33 118.19-3.15 118.10-2.98C118.02-2.80 117.93-2.63 117.85-2.44L117.82-2.44C117.73-2.63 117.65-2.80 117.58-2.98C117.51-3.15 117.43-3.33 117.35-3.51L116.72-4.88L116.05-4.88ZM122.62-4.36L122.62 0L123.24 0L123.24-4.36L124.72-4.36L124.72-4.88L121.14-4.88L121.14-4.36ZM125.51-4.88L125.51 0L126.13 0L126.13-2.30L128.40-2.30L128.40 0L129.02 0L129.02-4.88L128.40-4.88L128.40-2.84L126.13-2.84L126.13-4.88ZM130.27-4.88L130.27 0L133.16 0L133.16-0.53L130.89-0.53L130.89-2.30L132.75-2.30L132.75-2.83L130.89-2.83L130.89-4.36L133.09-4.36L133.09-4.88ZM135.53-4.88L135.53 0L137.08 0C137.36 0 137.61-0.03 137.83-0.09C138.06-0.15 138.26-0.24 138.42-0.36C138.59-0.48 138.71-0.63 138.80-0.80C138.89-0.98 138.94-1.19 138.94-1.43C138.94-1.77 138.84-2.03 138.64-2.23C138.44-2.42 138.16-2.54 137.80-2.60L137.80-2.63C138.09-2.70 138.31-2.84 138.44-3.03C138.58-3.23 138.65-3.45 138.65-3.69C138.65-3.91 138.61-4.09 138.53-4.24C138.45-4.39 138.33-4.51 138.19-4.61C138.04-4.70 137.86-4.77 137.66-4.82C137.45-4.86 137.23-4.88 136.98-4.88ZM136.87-2.80L136.14-2.80L136.14-4.39L136.90-4.39C137.28-4.39 137.56-4.33 137.76-4.22C137.95-4.10 138.04-3.91 138.04-3.64C138.04-3.37 137.95-3.16 137.77-3.01C137.59-2.87 137.29-2.80 136.87-2.80ZM136.99-0.49L136.14-0.49L136.14-2.34L136.99-2.34C137.42-2.34 137.75-2.27 137.98-2.13C138.21-1.98 138.33-1.76 138.33-1.46C138.33-1.13 138.21-0.88 137.98-0.73C137.74-0.57 137.41-0.49 136.99-0.49ZM139.82-4.88L139.82 0L142.70 0L142.70-0.53L140.43-0.53L140.43-2.30L142.29-2.30L142.29-2.83L140.43-2.83L140.43-4.36L142.63-4.36L142.63-4.88ZM143.67-1.06L143.30-0.63C143.51-0.41 143.76-0.23 144.05-0.10C144.35 0.02 144.66 0.09 145.01 0.09C145.27 0.09 145.50 0.05 145.70-0.02C145.90-0.09 146.08-0.19 146.22-0.32C146.36-0.44 146.47-0.59 146.55-0.76C146.63-0.93 146.67-1.11 146.67-1.30C146.67-1.48 146.64-1.64 146.59-1.78C146.54-1.91 146.47-2.03 146.38-2.13C146.29-2.23 146.18-2.32 146.06-2.40C145.93-2.48 145.80-2.55 145.66-2.61L144.97-2.90C144.87-2.94 144.77-2.99 144.68-3.03C144.59-3.08 144.50-3.14 144.42-3.20C144.34-3.26 144.28-3.33 144.23-3.41C144.18-3.49 144.16-3.60 144.16-3.71C144.16-3.94 144.24-4.11 144.41-4.24C144.57-4.37 144.79-4.43 145.07-4.43C145.29-4.43 145.50-4.39 145.68-4.31C145.86-4.22 146.03-4.11 146.18-3.97L146.51-4.37C146.34-4.55 146.13-4.69 145.88-4.81C145.63-4.92 145.36-4.97 145.07-4.97C144.84-4.97 144.64-4.94 144.45-4.88C144.27-4.81 144.11-4.72 143.97-4.60C143.83-4.49 143.73-4.35 143.65-4.19C143.57-4.03 143.53-3.86 143.53-3.68C143.53-3.50 143.56-3.34 143.62-3.20C143.68-3.07 143.76-2.95 143.85-2.85C143.95-2.75 144.05-2.67 144.17-2.60C144.29-2.53 144.41-2.47 144.52-2.42L145.22-2.11C145.34-2.06 145.44-2.01 145.54-1.96C145.64-1.91 145.73-1.85 145.80-1.79C145.87-1.73 145.93-1.65 145.97-1.57C146.01-1.48 146.03-1.37 146.03-1.25C146.03-1.01 145.95-0.82 145.77-0.67C145.59-0.53 145.34-0.45 145.01-0.45C144.76-0.45 144.52-0.51 144.28-0.62C144.05-0.73 143.84-0.88 143.67-1.06ZM148.40-4.36L148.40 0L149.03 0L149.03-4.36L150.50-4.36L150.50-4.88L146.93-4.88L146.93-4.36ZM152.21-4.88L153.25 0L153.98 0L154.71-2.94C154.75-3.13 154.79-3.31 154.83-3.49C154.87-3.68 154.91-3.86 154.95-4.05L154.98-4.05C155.02-3.86 155.06-3.68 155.10-3.49C155.13-3.31 155.18-3.13 155.22-2.94L155.96 0L156.70 0L157.71-4.88L157.12-4.88L156.60-2.23C156.55-1.96 156.51-1.70 156.46-1.44C156.42-1.18 156.37-0.92 156.33-0.65L156.30-0.65C156.24-0.92 156.18-1.18 156.12-1.44C156.06-1.71 156.00-1.97 155.94-2.23L155.26-4.88L154.70-4.88L154.02-2.23C153.97-1.96 153.91-1.70 153.85-1.44C153.79-1.18 153.73-0.92 153.68-0.65L153.65-0.65C153.60-0.92 153.56-1.18 153.51-1.44C153.46-1.69 153.41-1.96 153.37-2.23L152.85-4.88ZM158.48-4.88L158.48 0L161.36 0L161.36-0.53L159.09-0.53L159.09-2.30L160.95-2.30L160.95-2.83L159.09-2.83L159.09-4.36L161.29-4.36L161.29-4.88ZM163.44-2.44C163.44-2.04 163.50-1.69 163.60-1.37C163.71-1.06 163.86-0.79 164.05-0.58C164.24-0.36 164.47-0.20 164.73-0.08C164.99 0.03 165.27 0.09 165.58 0.09C165.89 0.09 166.17 0.03 166.42-0.10C166.66-0.22 166.88-0.39 167.07-0.62L166.72-1.00C166.56-0.82 166.39-0.69 166.22-0.60C166.04-0.50 165.83-0.45 165.60-0.45C165.36-0.45 165.15-0.50 164.97-0.60C164.78-0.69 164.62-0.82 164.49-1.00C164.37-1.17 164.26-1.38 164.19-1.63C164.12-1.87 164.09-2.15 164.09-2.46C164.09-2.76 164.12-3.03 164.20-3.28C164.27-3.52 164.38-3.73 164.51-3.90C164.64-4.07 164.80-4.20 164.99-4.29C165.18-4.38 165.39-4.43 165.63-4.43C165.83-4.43 166.02-4.39 166.17-4.31C166.33-4.22 166.47-4.11 166.60-3.98L166.95-4.37C166.81-4.53 166.62-4.67 166.40-4.79C166.18-4.91 165.92-4.97 165.62-4.97C165.31-4.97 165.02-4.91 164.75-4.80C164.49-4.68 164.26-4.51 164.06-4.30C163.87-4.08 163.72-3.81 163.61-3.50C163.50-3.19 163.44-2.83 163.44-2.44ZM169.97-1.99L168.50-1.99L168.73-2.73C168.82-3.00 168.91-3.28 168.99-3.55C169.06-3.82 169.14-4.09 169.22-4.38L169.25-4.38C169.33-4.09 169.40-3.82 169.48-3.55C169.56-3.28 169.65-3.00 169.74-2.73ZM170.12-1.49L170.59 0L171.25 0L169.60-4.88L168.90-4.88L167.24 0L167.88 0L168.35-1.49ZM171.85-4.88L171.85 0L172.44 0L172.44-2.55C172.44-2.81 172.43-3.07 172.42-3.32C172.40-3.58 172.38-3.83 172.36-4.08L172.39-4.08L172.92-3.07L174.69 0L175.33 0L175.33-4.88L174.74-4.88L174.74-2.36C174.74-2.10 174.75-1.84 174.77-1.57C174.79-1.31 174.80-1.05 174.82-0.80L174.79-0.80L174.26-1.82L172.49-4.88Z" transform="translate(-0.17120880029775445, 4.97249906951739)"></path></g></g></g></g></g></g><defs v-gra="od"></defs></svg>